<svg width="87" height="58" viewBox="0 0 87 58" fill="none" xmlns="http://www.w3.org/2000/svg">
<path d="M30.44 17.16C32.1467 17.16 33.6533 17.5067 34.96 18.2C36.2933 18.8667 37.3333 19.9067 38.08 21.32C38.8533 22.7067 39.24 24.4933 39.24 26.68V39H33V27.64C33 25.9067 32.64 24.6267 31.92 23.8C31.2 22.9733 30.1867 22.56 28.88 22.56C27.9733 22.56 27.16 22.7733 26.44 23.2C25.72 23.6 25.16 24.2133 24.76 25.04C24.36 25.8667 24.16 26.92 24.16 28.2V39H17.92V27.64C17.92 25.9067 17.56 24.6267 16.84 23.8C16.1467 22.9733 15.1467 22.56 13.84 22.56C12.9333 22.56 12.12 22.7733 11.4 23.2C10.68 23.6 10.12 24.2133 9.72 25.04C9.32 25.8667 9.12 26.92 9.12 28.2V39H2.88V17.48H8.84V23.36L7.72 21.64C8.46667 20.1733 9.52 19.0667 10.88 18.32C12.2667 17.5467 13.84 17.16 15.6 17.16C17.5733 17.16 19.2933 17.6667 20.76 18.68C22.2533 19.6667 23.24 21.1867 23.72 23.24L21.52 22.64C22.24 20.96 23.3867 19.6267 24.96 18.64C26.56 17.6533 28.3867 17.16 30.44 17.16ZM53.6331 39.32C51.0998 39.32 49.1265 38.68 47.7131 37.4C46.2998 36.0933 45.5931 34.16 45.5931 31.6V12.72H51.8331V31.52C51.8331 32.4267 52.0731 33.1333 52.5531 33.64C53.0331 34.12 53.6865 34.36 54.5131 34.36C55.4998 34.36 56.3398 34.0933 57.0331 33.56L58.7131 37.96C58.0731 38.4133 57.2998 38.76 56.3931 39C55.5131 39.2133 54.5931 39.32 53.6331 39.32ZM42.2731 22.76V17.96H57.1931V22.76H42.2731ZM74.9359 39.32C73.0426 39.32 71.4159 38.92 70.0559 38.12C68.6959 37.32 67.6559 36.1067 66.9359 34.48C66.2159 32.8267 65.8559 30.7467 65.8559 28.24C65.8559 25.7067 66.2293 23.6267 66.9759 22C67.7493 20.3733 68.8159 19.16 70.1759 18.36C71.5359 17.56 73.1226 17.16 74.9359 17.16C76.9626 17.16 78.7759 17.6133 80.3759 18.52C82.0026 19.4267 83.2826 20.7067 84.2159 22.36C85.1759 24.0133 85.6559 25.9733 85.6559 28.24C85.6559 30.48 85.1759 32.4267 84.2159 34.08C83.2826 35.7333 82.0026 37.0267 80.3759 37.96C78.7759 38.8667 76.9626 39.32 74.9359 39.32ZM62.2159 39V9.32H68.4559V21.84L68.0559 28.2L68.1759 34.6V39H62.2159ZM73.8559 34.2C74.8959 34.2 75.8159 33.96 76.6159 33.48C77.4426 33 78.0959 32.32 78.5759 31.44C79.0826 30.5333 79.3359 29.4667 79.3359 28.24C79.3359 26.9867 79.0826 25.92 78.5759 25.04C78.0959 24.16 77.4426 23.48 76.6159 23C75.8159 22.52 74.8959 22.28 73.8559 22.28C72.8159 22.28 71.8826 22.52 71.0559 23C70.2293 23.48 69.5759 24.16 69.0959 25.04C68.6159 25.92 68.3759 26.9867 68.3759 28.24C68.3759 29.4667 68.6159 30.5333 69.0959 31.44C69.5759 32.32 70.2293 33 71.0559 33.48C71.8826 33.96 72.8159 34.2 73.8559 34.2Z" fill="white"/>
<path d="M24.03 54V52.425L23.88 52.08V49.26C23.88 48.76 23.725 48.37 23.415 48.09C23.115 47.81 22.65 47.67 22.02 47.67C21.59 47.67 21.165 47.74 20.745 47.88C20.335 48.01 19.985 48.19 19.695 48.42L18.855 46.785C19.295 46.475 19.825 46.235 20.445 46.065C21.065 45.895 21.695 45.81 22.335 45.81C23.565 45.81 24.52 46.1 25.2 46.68C25.88 47.26 26.22 48.165 26.22 49.395V54H24.03ZM21.57 54.12C20.94 54.12 20.4 54.015 19.95 53.805C19.5 53.585 19.155 53.29 18.915 52.92C18.675 52.55 18.555 52.135 18.555 51.675C18.555 51.195 18.67 50.775 18.9 50.415C19.14 50.055 19.515 49.775 20.025 49.575C20.535 49.365 21.2 49.26 22.02 49.26H24.165V50.625H22.275C21.725 50.625 21.345 50.715 21.135 50.895C20.935 51.075 20.835 51.3 20.835 51.57C20.835 51.87 20.95 52.11 21.18 52.29C21.42 52.46 21.745 52.545 22.155 52.545C22.545 52.545 22.895 52.455 23.205 52.275C23.515 52.085 23.74 51.81 23.88 51.45L24.24 52.53C24.07 53.05 23.76 53.445 23.31 53.715C22.86 53.985 22.28 54.12 21.57 54.12ZM31.8614 54.12C31.1014 54.12 30.4164 53.95 29.8064 53.61C29.1964 53.26 28.7114 52.775 28.3514 52.155C28.0014 51.535 27.8264 50.805 27.8264 49.965C27.8264 49.115 28.0014 48.38 28.3514 47.76C28.7114 47.14 29.1964 46.66 29.8064 46.32C30.4164 45.98 31.1014 45.81 31.8614 45.81C32.5414 45.81 33.1364 45.96 33.6464 46.26C34.1564 46.56 34.5514 47.015 34.8314 47.625C35.1114 48.235 35.2514 49.015 35.2514 49.965C35.2514 50.905 35.1164 51.685 34.8464 52.305C34.5764 52.915 34.1864 53.37 33.6764 53.67C33.1764 53.97 32.5714 54.12 31.8614 54.12ZM32.2664 52.2C32.6464 52.2 32.9914 52.11 33.3014 51.93C33.6114 51.75 33.8564 51.495 34.0364 51.165C34.2264 50.825 34.3214 50.425 34.3214 49.965C34.3214 49.495 34.2264 49.095 34.0364 48.765C33.8564 48.435 33.6114 48.18 33.3014 48C32.9914 47.82 32.6464 47.73 32.2664 47.73C31.8764 47.73 31.5264 47.82 31.2164 48C30.9064 48.18 30.6564 48.435 30.4664 48.765C30.2864 49.095 30.1964 49.495 30.1964 49.965C30.1964 50.425 30.2864 50.825 30.4664 51.165C30.6564 51.495 30.9064 51.75 31.2164 51.93C31.5264 52.11 31.8764 52.2 32.2664 52.2ZM34.3814 54V52.35L34.4264 49.95L34.2764 47.565V42.87H36.6164V54H34.3814ZM49.1171 45.81C49.7571 45.81 50.3221 45.94 50.8121 46.2C51.3121 46.45 51.7021 46.84 51.9821 47.37C52.2721 47.89 52.4171 48.56 52.4171 49.38V54H50.0771V49.74C50.0771 49.09 49.9421 48.61 49.6721 48.3C49.4021 47.99 49.0221 47.835 48.5321 47.835C48.1921 47.835 47.8871 47.915 47.6171 48.075C47.3471 48.225 47.1371 48.455 46.9871 48.765C46.8371 49.075 46.7621 49.47 46.7621 49.95V54H44.4221V49.74C44.4221 49.09 44.2871 48.61 44.0171 48.3C43.7571 47.99 43.3821 47.835 42.8921 47.835C42.5521 47.835 42.2471 47.915 41.9771 48.075C41.7071 48.225 41.4971 48.455 41.3471 48.765C41.1971 49.075 41.1221 49.47 41.1221 49.95V54H38.7821V45.93H41.0171V48.135L40.5971 47.49C40.8771 46.94 41.2721 46.525 41.7821 46.245C42.3021 45.955 42.8921 45.81 43.5521 45.81C44.2921 45.81 44.9371 46 45.4871 46.38C46.0471 46.75 46.4171 47.32 46.5971 48.09L45.7721 47.865C46.0421 47.235 46.4721 46.735 47.0621 46.365C47.6621 45.995 48.3471 45.81 49.1171 45.81ZM54.5146 54V45.93H56.8546V54H54.5146ZM55.6846 44.805C55.2546 44.805 54.9046 44.68 54.6346 44.43C54.3646 44.18 54.2296 43.87 54.2296 43.5C54.2296 43.13 54.3646 42.82 54.6346 42.57C54.9046 42.32 55.2546 42.195 55.6846 42.195C56.1146 42.195 56.4646 42.315 56.7346 42.555C57.0046 42.785 57.1396 43.085 57.1396 43.455C57.1396 43.845 57.0046 44.17 56.7346 44.43C56.4746 44.68 56.1246 44.805 55.6846 44.805ZM63.9313 45.81C64.5713 45.81 65.1413 45.94 65.6413 46.2C66.1513 46.45 66.5513 46.84 66.8413 47.37C67.1313 47.89 67.2763 48.56 67.2763 49.38V54H64.9363V49.74C64.9363 49.09 64.7913 48.61 64.5013 48.3C64.2213 47.99 63.8213 47.835 63.3013 47.835C62.9313 47.835 62.5963 47.915 62.2963 48.075C62.0063 48.225 61.7763 48.46 61.6063 48.78C61.4463 49.1 61.3663 49.51 61.3663 50.01V54H59.0263V45.93H61.2613V48.165L60.8413 47.49C61.1313 46.95 61.5463 46.535 62.0863 46.245C62.6263 45.955 63.2413 45.81 63.9313 45.81Z" fill="white"/>
</svg>
