<svg width="84" height="31" viewBox="0 0 84 31" fill="none" xmlns="http://www.w3.org/2000/svg">
<path d="M28.44 8.16C30.1467 8.16 31.6533 8.50667 32.96 9.2C34.2933 9.86667 35.3333 10.9067 36.08 12.32C36.8533 13.7067 37.24 15.4933 37.24 17.68V30H31V18.64C31 16.9067 30.64 15.6267 29.92 14.8C29.2 13.9733 28.1867 13.56 26.88 13.56C25.9733 13.56 25.16 13.7733 24.44 14.2C23.72 14.6 23.16 15.2133 22.76 16.04C22.36 16.8667 22.16 17.92 22.16 19.2V30H15.92V18.64C15.92 16.9067 15.56 15.6267 14.84 14.8C14.1467 13.9733 13.1467 13.56 11.84 13.56C10.9333 13.56 10.12 13.7733 9.4 14.2C8.68 14.6 8.12 15.2133 7.72 16.04C7.32 16.8667 7.12 17.92 7.12 19.2V30H0.88V8.48H6.84V14.36L5.72 12.64C6.46667 11.1733 7.52 10.0667 8.88 9.32C10.2667 8.54667 11.84 8.16 13.6 8.16C15.5733 8.16 17.2933 8.66667 18.76 9.68C20.2533 10.6667 21.24 12.1867 21.72 14.24L19.52 13.64C20.24 11.96 21.3867 10.6267 22.96 9.64C24.56 8.65333 26.3867 8.16 28.44 8.16ZM51.6331 30.32C49.0998 30.32 47.1265 29.68 45.7131 28.4C44.2998 27.0933 43.5931 25.16 43.5931 22.6V3.72H49.8331V22.52C49.8331 23.4267 50.0731 24.1333 50.5531 24.64C51.0331 25.12 51.6865 25.36 52.5131 25.36C53.4998 25.36 54.3398 25.0933 55.0331 24.56L56.7131 28.96C56.0731 29.4133 55.2998 29.76 54.3931 30C53.5131 30.2133 52.5931 30.32 51.6331 30.32ZM40.2731 13.76V8.96H55.1931V13.76H40.2731ZM72.9359 30.32C71.0426 30.32 69.4159 29.92 68.0559 29.12C66.6959 28.32 65.6559 27.1067 64.9359 25.48C64.2159 23.8267 63.8559 21.7467 63.8559 19.24C63.8559 16.7067 64.2293 14.6267 64.9759 13C65.7493 11.3733 66.8159 10.16 68.1759 9.36C69.5359 8.56 71.1226 8.16 72.9359 8.16C74.9626 8.16 76.7759 8.61333 78.3759 9.52C80.0026 10.4267 81.2826 11.7067 82.2159 13.36C83.1759 15.0133 83.6559 16.9733 83.6559 19.24C83.6559 21.48 83.1759 23.4267 82.2159 25.08C81.2826 26.7333 80.0026 28.0267 78.3759 28.96C76.7759 29.8667 74.9626 30.32 72.9359 30.32ZM60.2159 30V0.319998H66.4559V12.84L66.0559 19.2L66.1759 25.6V30H60.2159ZM71.8559 25.2C72.8959 25.2 73.8159 24.96 74.6159 24.48C75.4426 24 76.0959 23.32 76.5759 22.44C77.0826 21.5333 77.3359 20.4667 77.3359 19.24C77.3359 17.9867 77.0826 16.92 76.5759 16.04C76.0959 15.16 75.4426 14.48 74.6159 14C73.8159 13.52 72.8959 13.28 71.8559 13.28C70.8159 13.28 69.8826 13.52 69.0559 14C68.2293 14.48 67.5759 15.16 67.0959 16.04C66.6159 16.92 66.3759 17.9867 66.3759 19.24C66.3759 20.4667 66.6159 21.5333 67.0959 22.44C67.5759 23.32 68.2293 24 69.0559 24.48C69.8826 24.96 70.8159 25.2 71.8559 25.2Z" fill="white"/>
</svg>
